<?xml version="1.0" encoding="utf-8"?>
<!-- Generator: Adobe Illustrator 15.1.0, SVG Export Plug-In . SVG Version: 6.00 Build 0)  -->
<!DOCTYPE svg PUBLIC "-//W3C//DTD SVG 1.1//EN" "http://www.w3.org/Graphics/SVG/1.1/DTD/svg11.dtd">
<svg version="1.1" id="Layer_1" xmlns="http://www.w3.org/2000/svg" xmlns:xlink="http://www.w3.org/1999/xlink" x="0px" y="0px"
	 width="1209px" height="422px" viewBox="0 0 1209 422" style="enable-background:new 0 0 1209 422;" xml:space="preserve">
<style type="text/css">
<![CDATA[
	.st0{fill:none;stroke:#000000;stroke-width:7;stroke-linecap:round;stroke-linejoin:round;}
	.st1{enable-background:new    ;}
	.st2{fill:#FFCC66;}
	.st3{fill:#FFCC99;}
	.st4{fill:#FFCCCC;}
	.st5{fill:none;}
	.st6{fill:#CCCCCC;}
	.st7{fill:none;stroke:#000000;stroke-width:7;stroke-miterlimit:10;}
]]>
</style>
<g id="Layer_1_1_">
	<g id="XMLID_2_">
		<g>
			<g id="XMLID_3_">
			</g>
		</g>
	</g>
	<g>
		<polygon points="19.1,403.2 23.6,386.3 24.1,386.5 35.7,398.1 35.8,398.5 		"/>
		<path class="st3" d="M94.1,382.2l-58.3,16.3l-0.1-0.4l-11.6-11.7l-0.5-0.1L40,325.9C39.7,342,77.8,381.5,94.1,382.2z"/>
		<path class="st4" d="M403.4,37.8c12.1,12.5,11.9,32.6-0.6,44.7l-22.5,22.2l-58.1-58.6l23.3-22.8c12.4-12.2,32.3-12,44.5,0.6
			L403.4,37.8z"/>
		<polygon class="st6" points="322.1,46.2 380.3,104.7 350.4,134 292.3,75.4 		"/>
		<path class="st2" d="M98.5,380.2l-4.4,1.2c-16.3-0.7-54.4-40.2-54.2-56.3l0.3-1"/>
		<path class="st2" d="M292.3,75.4l58.1,58.5L99.1,380.6c-1.2,1.2-2.9,1.7-5,1.6l4.4-1.2l-58.3-56.1l-0.3,1c0-1.9,0.6-3.5,1.8-4.6
			L292.3,75.4z"/>
		<polyline class="st7" points="292.3,75.4 350.4,134 350.5,134 		"/>
		<line class="st7" x1="322.1" y1="46.2" x2="380.3" y2="104.7"/>
		<path class="st7" d="M380.3,104.7l22.5-22.2c12.5-12.2,12.7-32.2,0.6-44.7l-13.5-13.9c-12.1-12.5-32-12.8-44.5-0.6l-23.3,22.8
			l-29.8,29.3L41.7,321.3c-1.2,1.1-1.7,2.7-1.8,4.6c-0.2,16.1,37.9,55.6,54.2,56.3c2,0.1,3.7-0.4,5-1.6L350.4,134L380.3,104.7z"/>
		<line class="st7" x1="24.1" y1="386.5" x2="35.7" y2="398.1"/>
		<polyline class="st7" points="40,325.9 23.6,386.3 19.1,403.2 35.8,398.5 94.1,382.2 		"/>
		<line class="st0" x1="83.9" y1="359.6" x2="311.6" y2="130.4"/>
		<line class="st0" x1="74.1" y1="328.2" x2="301.8" y2="99.1"/>
	</g>
</g>
<g id="Layer_2">
	<rect x="336.3" y="83.1" class="st5" width="910.2" height="291.5"/>
	<g class="st1">
		<path d="M355.5,173.9c8.1-3.5,17.2-6.4,27.1-8.7c9.9-2.3,19.7-3.5,29.5-3.5c9.3,0,17.1,0.9,23.2,2.8c6.2,1.9,11.1,4.8,14.8,8.7
			c3.7,4,6.3,9,7.7,15c1.4,6.1,2.1,13.2,2.1,21.3v125.8c0,1.2-0.1,2-0.3,2.6c-0.2,0.6-1,1-2.3,1.4c-1.3,0.3-3.2,0.5-5.8,0.5
			c-2.6,0-6.3,0-11.2,0V214.7c0-6.3-0.4-11.7-1.2-16.2c-0.8-4.5-2.3-8.3-4.4-11.2c-2.1-2.9-5-5.1-8.7-6.5c-3.7-1.4-8.6-2.1-14.7-2.1
			c-5.1,0-11.2,0.6-18.2,1.9c-7,1.3-13.2,3.3-18.5,6.1v148.5c0,1.2-0.1,2-0.3,2.6c-0.2,0.6-1,1-2.3,1.4c-1.3,0.3-3.2,0.5-5.8,0.5
			c-2.6,0-6.2,0-10.8,0V173.9z"/>
		<path d="M487.2,252.8c0-32.4,5.2-55.7,15.5-69.9c10.4-14.2,24.6-21.3,42.8-21.3c9.1,0,17,1.4,23.8,4.2c6.8,2.8,12.4,7.6,16.9,14.5
			c4.5,6.9,7.9,16.1,10.1,27.8c2.2,11.6,3.3,26.4,3.3,44.4c0,31.4-5,54.4-15,69c-10,14.6-24.3,21.8-43,21.8c-8.4,0-16-1-22.7-3
			c-6.8-2-12.5-6.2-17.3-12.6c-4.8-6.4-8.4-15.5-10.8-27.4C488.4,288.4,487.2,272.6,487.2,252.8z M507.8,254.2
			c0,15.1,0.8,27.4,2.3,36.9c1.5,9.4,3.8,16.8,6.8,22c3,5.2,6.6,8.8,10.8,10.7c4.2,1.9,9.1,2.8,14.7,2.8s10.6-1.3,15-4
			c4.4-2.7,8.3-7,11.5-12.9c3.3-5.9,5.8-13.6,7.5-23.1c1.7-9.4,2.6-21,2.6-34.8c0-15.1-0.8-27.4-2.3-36.9
			c-1.5-9.4-3.7-16.8-6.6-22.2c-2.9-5.4-6.5-9-10.7-11c-4.2-2-9.1-3-14.7-3s-10.7,1.2-15.2,3.5c-4.5,2.3-8.4,6.4-11.7,12.2
			c-3.3,5.8-5.8,13.6-7.5,23.2C508.7,227.4,507.8,239.5,507.8,254.2z"/>
		<path d="M639.5,182.3h-25.8c0-7.7,0.2-12.5,0.7-14.3c0.5-1.9,1.7-2.8,3.8-2.8h21.3v-55.2c0-4,1.2-6.2,3.5-6.8
			c2.3-0.6,7.6-0.9,15.7-0.9v62.9H701c0,7.7-0.2,12.5-0.7,14.3c-0.5,1.9-1.6,2.8-3.5,2.8h-38.1v107.2c0,5.1,0.1,9.9,0.3,14.3
			c0.2,4.4,0.9,8.3,1.9,11.7c1,3.4,2.6,6,4.7,7.9c2.1,1.9,5.1,2.8,9.1,2.8c4.9,0,8.9-0.5,12.1-1.4c3.1-0.9,6.7-2.3,10.7-4.2
			c0.5,1.4,0.8,3,1,4.7c0.2,1.7,0.3,3.6,0.3,5.4c0,2.3-0.8,4.3-2.4,5.8c-1.6,1.5-3.8,2.8-6.5,3.8c-2.7,1-5.7,1.8-9.1,2.3
			c-3.4,0.5-6.8,0.7-10.3,0.7c-7.2,0-12.9-1.3-17.1-4c-4.2-2.7-7.3-6.4-9.4-11.2c-2.1-4.8-3.4-10.5-3.8-17.1
			c-0.5-6.6-0.7-13.9-0.7-21.8V182.3z"/>
		<path d="M778.2,161.6c15.4,0,26.5,4.8,33.5,14.5c7,9.7,10.5,23.2,10.5,40.7c0,7.5-0.3,14.8-0.9,22.2c-0.6,7.3-1.5,13.9-2.6,19.7
			c-7.5,1.4-15.3,2.6-23.4,3.5c-8.2,0.9-16,1.6-23.6,1.9c-7.6,0.3-14.6,0.6-21.1,0.7c-6.5,0.1-11.6,0.2-15.4,0.2
			c0,12.8,1,23.1,3,30.9c2,7.8,4.7,13.8,8.2,18c3.5,4.2,7.7,7,12.8,8.4c5,1.4,10.7,2.1,16.9,2.1c7.9,0,15.5-1,22.9-3
			c7.3-2,13.7-4.9,19-8.9c0.9,2.3,1.6,4.7,1.9,7.2c0.3,2.4,0.5,4.6,0.5,6.5c0,2.1-1.3,4.2-3.8,6.3c-2.6,2.1-6,3.9-10.3,5.4
			c-4.3,1.5-9.4,2.8-15.2,3.8c-5.8,1-11.9,1.6-18.2,1.6c-8.4,0-16.1-0.9-23.1-2.8c-7-1.9-13-5.7-18-11.5c-5-5.8-9-14.1-11.9-24.8
			c-2.9-10.7-4.4-24.8-4.4-42.3c0-22.4,1.9-40.2,5.8-53.4c3.8-13.3,8.7-23.4,14.7-30.4s12.6-11.5,20.1-13.4
			C763.6,162.6,770.9,161.6,778.2,161.6z M776.4,179.1c-4.4,0-9,0.8-13.6,2.3c-4.7,1.5-8.9,4.7-12.8,9.6c-3.8,4.9-7,11.9-9.6,21.1
			c-2.6,9.2-4.2,21.5-4.9,36.9c3.5,0,8,0,13.4,0c5.5,0,11.4-0.2,17.6-0.5c6.3-0.3,12.5-0.9,18.7-1.6c6.2-0.7,11.7-1.6,16.6-2.8
			c0.5-4.2,0.8-8.2,1-12.1c0.2-3.8,0.3-7.6,0.3-11.4c-0.2-14-2.2-24.4-5.8-31.3C793.9,182.5,786.9,179.1,776.4,179.1z"/>
		<path d="M919.6,91.8c10.7,0,19.5,1.6,26.4,4.9c6.9,3.3,10.3,7,10.3,11.2c0,3.7-0.9,7.7-2.8,11.9c-3.7-2.8-8-5.1-12.9-6.8
			s-10.7-2.6-17.5-2.6c-9.1,0-17.2,1.6-24.3,4.9c-7.1,3.3-13,9-17.8,17.3c-4.8,8.3-8.4,19.5-11,33.7c-2.6,14.2-3.8,32.3-3.8,54.1
			c0,23.1,1.2,41.5,3.5,55.2c2.3,13.7,5.5,24.2,9.6,31.4c4.1,7.2,8.9,11.9,14.5,14.1c5.6,2.2,11.6,3.3,18.2,3.3
			c8.4,0,15-1.6,19.7-4.9c4.8-3.3,7.7-6.1,8.9-8.4v-94h-34.2v-11.9c0-3,1.7-4.5,5.2-4.5h47.2v123c-1.4,1.4-3.3,3.2-5.8,5.4
			c-2.4,2.2-5.6,4.4-9.4,6.5c-3.8,2.1-8.4,3.9-13.8,5.4c-5.4,1.5-11.5,2.3-18.5,2.3c-10.3,0-19.4-1.6-27.6-4.7
			c-8.2-3.1-15-9.1-20.6-18c-5.6-8.8-9.8-21.2-12.8-37c-2.9-15.8-4.4-36.6-4.4-62.2c0-26.8,1.7-48.6,5.2-65.5
			c3.5-16.9,8.5-30,15-39.5c6.5-9.4,14.3-15.9,23.4-19.4S908.7,91.8,919.6,91.8z"/>
		<path d="M1048.5,161.6c15.4,0,26.5,4.8,33.5,14.5c7,9.7,10.5,23.2,10.5,40.7c0,7.5-0.3,14.8-0.9,22.2c-0.6,7.3-1.5,13.9-2.6,19.7
			c-7.5,1.4-15.3,2.6-23.4,3.5c-8.2,0.9-16,1.6-23.6,1.9c-7.6,0.3-14.6,0.6-21.1,0.7c-6.5,0.1-11.6,0.2-15.4,0.2
			c0,12.8,1,23.1,3,30.9c2,7.8,4.7,13.8,8.2,18c3.5,4.2,7.7,7,12.8,8.4c5,1.4,10.7,2.1,16.9,2.1c7.9,0,15.5-1,22.9-3
			c7.3-2,13.7-4.9,19-8.9c0.9,2.3,1.6,4.7,1.9,7.2c0.3,2.4,0.5,4.6,0.5,6.5c0,2.1-1.3,4.2-3.8,6.3c-2.6,2.1-6,3.9-10.3,5.4
			c-4.3,1.5-9.4,2.8-15.2,3.8c-5.8,1-11.9,1.6-18.2,1.6c-8.4,0-16.1-0.9-23.1-2.8c-7-1.9-13-5.7-18-11.5c-5-5.8-9-14.1-11.9-24.8
			c-2.9-10.7-4.4-24.8-4.4-42.3c0-22.4,1.9-40.2,5.8-53.4c3.8-13.3,8.7-23.4,14.7-30.4s12.6-11.5,20.1-13.4
			C1034,162.6,1041.3,161.6,1048.5,161.6z M1046.8,179.1c-4.4,0-9,0.8-13.6,2.3c-4.7,1.5-8.9,4.7-12.8,9.6c-3.8,4.9-7,11.9-9.6,21.1
			c-2.6,9.2-4.2,21.5-4.9,36.9c3.5,0,8,0,13.4,0c5.5,0,11.4-0.2,17.6-0.5c6.3-0.3,12.5-0.9,18.7-1.6c6.2-0.7,11.7-1.6,16.6-2.8
			c0.5-4.2,0.8-8.2,1-12.1c0.2-3.8,0.3-7.6,0.3-11.4c-0.2-14-2.2-24.4-5.8-31.3C1064.3,182.5,1057.3,179.1,1046.8,179.1z"/>
		<path d="M1136.6,182.3h-25.8c0-7.7,0.2-12.5,0.7-14.3c0.5-1.9,1.7-2.8,3.8-2.8h21.3v-55.2c0-4,1.2-6.2,3.5-6.8
			c2.3-0.6,7.6-0.9,15.7-0.9v62.9h42.3c0,7.7-0.2,12.5-0.7,14.3c-0.5,1.9-1.6,2.8-3.5,2.8h-38.1v107.2c0,5.1,0.1,9.9,0.3,14.3
			c0.2,4.4,0.9,8.3,1.9,11.7c1,3.4,2.6,6,4.7,7.9c2.1,1.9,5.1,2.8,9.1,2.8c4.9,0,8.9-0.5,12.1-1.4c3.1-0.9,6.7-2.3,10.7-4.2
			c0.5,1.4,0.8,3,1,4.7c0.2,1.7,0.3,3.6,0.3,5.4c0,2.3-0.8,4.3-2.4,5.8c-1.6,1.5-3.8,2.8-6.5,3.8c-2.7,1-5.7,1.8-9.1,2.3
			c-3.4,0.5-6.8,0.7-10.3,0.7c-7.2,0-12.9-1.3-17.1-4c-4.2-2.7-7.3-6.4-9.4-11.2c-2.1-4.8-3.4-10.5-3.8-17.1
			c-0.5-6.6-0.7-13.9-0.7-21.8V182.3z"/>
	</g>
</g>
</svg>
